<svg xmlns="http://www.w3.org/2000/svg" viewBox="0 0 1200 900" role="img" aria-labelledby="title desc">
  <title id="title">Badkamer reparatie in Hoofddorp</title>
  <desc id="desc">Moderne projectvisual van een badkamerreparatie met vernieuwde details.</desc>
  <defs>
    <linearGradient id="bg" x1="0" y1="0" x2="1" y2="1">
      <stop offset="0%" stop-color="#173046"/>
      <stop offset="100%" stop-color="#0f1a25"/>
    </linearGradient>
    <linearGradient id="tile" x1="0" y1="0" x2="0" y2="1">
      <stop offset="0%" stop-color="#fcfbf7"/>
      <stop offset="100%" stop-color="#dce4eb"/>
    </linearGradient>
  </defs>
  <rect width="1200" height="900" rx="44" fill="url(#bg)"/>
  <rect x="120" y="110" width="960" height="680" rx="34" fill="#f7efe2" opacity="0.13"/>
  <rect x="190" y="180" width="820" height="540" rx="32" fill="url(#tile)"/>
  <rect x="250" y="250" width="350" height="340" rx="28" fill="#bdd4e4"/>
  <rect x="660" y="250" width="220" height="150" rx="26" fill="#ffffff"/>
  <rect x="710" y="300" width="120" height="18" rx="9" fill="#c9d4dc"/>
  <rect x="720" y="520" width="200" height="22" rx="11" fill="#879cad"/>
  <rect x="760" y="400" width="120" height="110" rx="18" fill="#f5a300"/>
  <circle cx="390" cy="380" r="86" fill="#f7fbff"/>
  <circle cx="390" cy="380" r="52" fill="#d7e6f1"/>
  <rect x="275" y="610" width="620" height="28" rx="14" fill="#d8c9b1"/>
  <path d="M650 610h60c12 0 22-10 22-22v-58c0-13 11-24 24-24h136" fill="none" stroke="#1f5f8b" stroke-width="22" stroke-linecap="round"/>
  <circle cx="892" cy="506" r="18" fill="#1f5f8b"/>
  <text x="190" y="140" fill="#fff5de" font-family="Arial, sans-serif" font-size="42" font-weight="700">Badkamer reparatie en afwerking</text>
  <text x="190" y="772" fill="#d8e4ee" font-family="Arial, sans-serif" font-size="36">Herstel van details voor een frisse en verzorgde badkamer</text>
</svg>