<svg xmlns="http://www.w3.org/2000/svg" viewBox="0 0 1200 900" role="img" aria-labelledby="title desc">
  <title id="title">Detailfoto badkamerreparatie in Hoofddorp</title>
  <desc id="desc">Illustratie van herstelde badkamerdetails zoals kitranden en accessoires.</desc>
  <defs>
    <linearGradient id="bg" x1="0" y1="0" x2="1" y2="1">
      <stop offset="0%" stop-color="#153349"/>
      <stop offset="100%" stop-color="#6e8fa8"/>
    </linearGradient>
  </defs>
  <rect width="1200" height="900" rx="44" fill="url(#bg)"/>
  <rect x="140" y="120" width="920" height="660" rx="34" fill="#eef4f8"/>
  <rect x="220" y="200" width="330" height="470" rx="30" fill="#d7e5ef"/>
  <rect x="650" y="220" width="270" height="150" rx="26" fill="#ffffff"/>
  <rect x="720" y="420" width="130" height="180" rx="22" fill="#f5a300"/>
  <rect x="278" y="550" width="214" height="18" rx="9" fill="#8bb0c7"/>
  <rect x="280" y="578" width="210" height="16" rx="8" fill="#1f5f8b"/>
  <path d="M620 648h110c18 0 32-14 32-32V504c0-16 12-28 28-28h140" fill="none" stroke="#1f5f8b" stroke-width="24" stroke-linecap="round"/>
  <circle cx="930" cy="476" r="22" fill="#1f5f8b"/>
  <rect x="650" y="640" width="270" height="26" rx="13" fill="#b4c6d3"/>
  <text x="160" y="88" fill="#fff4df" font-family="Arial, sans-serif" font-size="42" font-weight="700">Detail van badkamerafwerking</text>
  <text x="160" y="826" fill="#e8f1f8" font-family="Arial, sans-serif" font-size="34">Extra foto van kitwerk, accessoires en nette afwerking na reparatie</text>
</svg>