<svg xmlns="http://www.w3.org/2000/svg" viewBox="0 0 1200 900" role="img" aria-labelledby="title desc">
  <title id="title">Detailfoto schuttingonderhoud in Hoofddorp</title>
  <desc id="desc">Illustratie van een close-up van schuttingdelen die behandeld en verstevigd zijn.</desc>
  <defs>
    <linearGradient id="sky" x1="0" y1="0" x2="0" y2="1">
      <stop offset="0%" stop-color="#234159"/>
      <stop offset="100%" stop-color="#71925f"/>
    </linearGradient>
  </defs>
  <rect width="1200" height="900" rx="44" fill="url(#sky)"/>
  <rect x="0" y="640" width="1200" height="260" fill="#3d6335"/>
  <rect x="120" y="150" width="960" height="620" rx="34" fill="#f1e1c5" opacity="0.22"/>
  <rect x="220" y="220" width="110" height="420" rx="20" fill="#a4621e"/>
  <rect x="360" y="220" width="110" height="420" rx="20" fill="#b9762d"/>
  <rect x="500" y="220" width="110" height="420" rx="20" fill="#cc8a36"/>
  <rect x="640" y="220" width="110" height="420" rx="20" fill="#b9762d"/>
  <rect x="780" y="220" width="110" height="420" rx="20" fill="#a4621e"/>
  <rect x="200" y="320" width="720" height="28" rx="14" fill="#6c3f10"/>
  <rect x="200" y="520" width="720" height="28" rx="14" fill="#6c3f10"/>
  <path d="M940 312l90 54-54 86" fill="none" stroke="#f5a300" stroke-width="26" stroke-linecap="round" stroke-linejoin="round"/>
  <circle cx="982" cy="590" r="64" fill="#f5a300" opacity="0.28"/>
  <text x="150" y="98" fill="#fff4df" font-family="Arial, sans-serif" font-size="42" font-weight="700">Detail van schuttingbehandeling</text>
  <text x="150" y="818" fill="#fcf5e7" font-family="Arial, sans-serif" font-size="34">Extra foto van houtdelen met nieuwe beschermlaag en versteviging</text>
</svg>