<svg xmlns="http://www.w3.org/2000/svg" viewBox="0 0 1200 900" role="img" aria-labelledby="title desc">
  <title id="title">Wandplanken montage in Hoofddorp</title>
  <desc id="desc">Stijlvolle afbeelding van gemonteerde wandplanken en een opbergrek.</desc>
  <defs>
    <linearGradient id="bg" x1="0" y1="0" x2="1" y2="1">
      <stop offset="0%" stop-color="#11263a"/>
      <stop offset="100%" stop-color="#254866"/>
    </linearGradient>
    <linearGradient id="panel" x1="0" y1="0" x2="0" y2="1">
      <stop offset="0%" stop-color="#fff6e4"/>
      <stop offset="100%" stop-color="#f1dfc0"/>
    </linearGradient>
  </defs>
  <rect width="1200" height="900" rx="44" fill="url(#bg)"/>
  <rect x="90" y="90" width="1020" height="720" rx="36" fill="#f5efe6" opacity="0.18"/>
  <rect x="170" y="170" width="860" height="560" rx="30" fill="url(#panel)"/>
  <rect x="640" y="250" width="220" height="34" rx="17" fill="#a66a12"/>
  <rect x="640" y="400" width="250" height="34" rx="17" fill="#a66a12"/>
  <rect x="640" y="550" width="210" height="34" rx="17" fill="#a66a12"/>
  <rect x="670" y="284" width="18" height="94" rx="9" fill="#d38f2b"/>
  <rect x="812" y="284" width="18" height="94" rx="9" fill="#d38f2b"/>
  <rect x="690" y="434" width="18" height="94" rx="9" fill="#d38f2b"/>
  <rect x="842" y="434" width="18" height="94" rx="9" fill="#d38f2b"/>
  <rect x="670" y="584" width="18" height="94" rx="9" fill="#d38f2b"/>
  <rect x="802" y="584" width="18" height="94" rx="9" fill="#d38f2b"/>
  <rect x="250" y="560" width="170" height="70" rx="22" fill="#1f5f8b"/>
  <rect x="430" y="520" width="90" height="150" rx="18" fill="#ffc44d"/>
  <rect x="270" y="280" width="150" height="36" rx="18" fill="#21384e"/>
  <rect x="275" y="316" width="26" height="146" rx="13" fill="#314f6b"/>
  <rect x="365" y="316" width="26" height="146" rx="13" fill="#314f6b"/>
  <circle cx="475" cy="258" r="56" fill="#1f5f8b"/>
  <rect x="462" y="300" width="26" height="200" rx="13" fill="#f3a400"/>
  <rect x="225" y="708" width="750" height="2" fill="#d1bea0"/>
  <text x="170" y="130" fill="#fff5dd" font-family="Arial, sans-serif" font-size="44" font-weight="700">Montage van wandplanken</text>
  <text x="170" y="770" fill="#27445f" font-family="Arial, sans-serif" font-size="36">Kleine klus Hoofddorp met strakke uitlijning en stevige bevestiging</text>
</svg>